# AST/ASF file generated using VICON BodyLanguage
# -----------------------------------------------
:version 1.10
:name VICON
:units
  mass 1.0
  length 0.45
  angle deg
:documentation
   .ast/.asf automatically generated from VICON data using
   VICON BodyBuilder and BodyLanguage model FoxedUp or BRILLIANT.MOD
:root
   order TX TY TZ RX RY RZ
   axis XYZ
   position 0 0 0  
   orientation 0 0 0 
:bonedata
  begin
     id 1 
     name lhipjoint
     direction 0.62366 -0.717238 0.310833 
     length 2.53602 
     axis 0 0 0  XYZ
  end
  begin
     id 2 
     name lfemur
     direction 0.34202 -0.939693 0  
     length 7.40817  
     axis 0 0 20  XYZ
    dof rx ry rz
    limits (-160.0 20.0)
           (-70.0 70.0)
           (-60.0 70.0)
  end
  begin
     id 3 
     name ltibia
     direction 0.34202 -0.939693 0   
     length 7.7045   
     axis 0 0 20   XYZ
    dof rx
    limits (-10.0 170.0)
  end
  begin
     id 4 
     name lfoot
     direction 0.0673888 -0.185149 0.980397   
     length 2.09456   
     axis -90 7.62852e-016 20   XYZ
    dof rx rz
    limits (-45.0 90.0)
           (-70.0 20.0)
  end
  begin
     id 5 
     name ltoes
     direction 1.53575e-011 -4.21994e-011 1   
     length 1.05543   
     axis -90 7.62852e-016 20   XYZ
    dof rx
    limits (-90.0 20.0)
  end
  begin
     id 6 
     name rhipjoint
     direction -0.489018 -0.800347 0.346851   
     length 2.27268  
     axis 0 0 0  XYZ 
  end
  begin
     id 7 
     name rfemur
     direction -0.34202 -0.939693 0   
     length 7.55487   
     axis 0 0 -20   XYZ
    dof rx ry rz
    limits (-160.0 20.0)
           (-70.0 70.0)
           (-70.0 60.0)
  end
  begin
     id 8 
     name rtibia
     direction -0.34202 -0.939693 0   
     length 7.78969   
     axis 0 0 -20   XYZ
    dof rx
    limits (-10.0 170.0)
 end
 begin
     id 9 
     name rfoot
     direction -0.0859318 -0.236096 0.967923   
     length 2.19143  
     axis -90 -7.62852e-016 -20   XYZ
    dof rx rz
    limits (-45.0 90.0)
           (-20.0 70.0)
  end
  begin
     id 10 
     name rtoes
     direction -1.53538e-011 -4.21989e-011 1   
     length 1.09845   
     axis -90 -7.62852e-016 -20   XYZ
    dof rx
    limits (-90.0 20.0)
  end
  begin
     id 11 
     name lowerback
     direction -0.00762546 0.998978 -0.0445553   
     length 1.98161   
     axis 0 0 0   XYZ
    dof rx ry rz
    limits (-20.0 45.0)
           (-30.0 30.0)
           (-30.0 30.0)
  end
  begin
     id 12 
     name upperback
     direction 0.0422361 0.998867 -0.0219156   
     length 1.97558   
     axis 0 0 0   XYZ
    dof rx ry rz
    limits (-20.0 45.0)
           (-30.0 30.0)
           (-30.0 30.0)
  end
  begin
     id 13 
     name thorax
     direction 0.0442465 0.999021 7.47603e-005   
     length 1.97799   
     axis 0 0 0   XYZ
    dof rx ry rz
    limits (-20.0 45.0)
           (-30.0 30.0)
           (-30.0 30.0)
  end
  begin
     id 14 
     name lowerneck
     direction 0.00312169 0.984641 0.174564   
     length 1.78995   
     axis 0 0 0   XYZ
    dof rx ry rz
    limits (-20.0 45.0)
           (-30.0 30.0)
           (-30.0 30.0)
  end
  begin
     id 15 
     name upperneck
     direction -0.0383028 0.985255 -0.166749   
     length 1.83053   
     axis 0 0 0   XYZ
    dof rx ry rz
    limits (-20.0 45.0)
           (-30.0 30.0)
           (-30.0 30.0)
  end
  begin
     id 16
     name head
     direction -0.0129546 0.997059 -0.0755386  
     length 1.84088  
     axis 0 0 0   XYZ
    dof rx ry rz
    limits (-20.0 45.0)
           (-30.0 30.0)
           (-30.0 30.0)
  end
  begin
     id 17 
     name lclavicle
     direction 0.912857 0.370519 -0.171488  
     length 3.51279  
     axis 0 0 0   XYZ
    dof ry rz
    limits (-20.0 10.0)
           (0.0 20.0)
  end
  begin
     id 18 
     name lhumerus
     direction 1 -4.48962e-011 3.64361e-027   
     length 4.95663   
     axis 180 -30 -90   XYZ
    dof rx ry rz
    limits (-60.0 90.0)
           (-90.0 90.0)
           (-90.0 90.0)
  end
  begin
     id 19
     name lradius
     direction 1 -4.48974e-011 5.97202e-027   
     length 3.38177   
     axis 180 -30 -90   XYZ
    dof rx
    limits (-10.0 170.0)
  end
  begin
     id 20
     name lwrist
     direction 1 -4.4896e-011 9.83288e-027   
     length 1.69088   
     axis -9.31221e-015 90 90   XYZ
    dof ry
    limits (-180.0 0.0)
 end
  begin
     id 21 
     name lhand
     direction 1 -4.4902e-011 1.96551e-026   
     length 0.662909   
     axis -1.25475e-014 90 90   XYZ
    dof rx rz
    limits (-90.0 90.0)
           (-45.0 45.0)
  end
  begin
     id 22 
     name lfingers
     direction 1 -4.48971e-011 3.93277e-026   
     length 0.534454   
     axis -2.50945e-014 90 90   XYZ
    dof rx
    limits (0.0 90.0)
  end
  begin
     id 23
     name lthumb
     direction 0.707107 -6.34933e-011 0.707107   
     length 0.767373   
     axis -90 45 -4.80359e-014   XYZ
    dof rx rz
    limits (-45.0 45.0)
           (-45.0 45.0)
  end
  begin
     id 24 
     name rclavicle
     direction -0.900919 0.395364 -0.178976   
     length 3.40627  
     axis 0 0 0   XYZ 
    dof ry rz
    limits (-10.0 20.0)
           (-20.0 0.0)
  end
  begin
     id 25 
     name rhumerus
     direction -1 -4.48969e-011 1.03875e-027  
     length 5.08365   
     axis 180 30 90   XYZ
    dof rx ry rz
    limits (-90.0 60.0)
           (-90.0 90.0)
           (-90.0 90.0)
  end
  begin
     id 26 
     name rradius
     direction -1 -4.48951e-011 5.02733e-027   
     length 3.35984   
     axis 180 30 90   XYZ
    dof rx
    limits (-10.0 170.0)
  end
  begin
     id 27 
     name rwrist
     direction -1 -4.49011e-011 9.82828e-027   
     length 1.67992   
     axis -9.31221e-015 -90 -90   XYZ
    dof ry
    limits (-180.0 0.0)
  end
  begin
     id 28
     name rhand
     direction -1 -4.48894e-011 1.96774e-026   
     length 0.820764   
     axis -1.25475e-014 -90 -90   XYZ
    dof rx rz
    limits (-90.0 90.0)
           (-45.0 45.0)
  end
  begin
     id 29
     name rfingers
     direction -1 -4.49095e-011 3.92833e-026   
     length 0.661721   
     axis -2.50945e-014 -90 -90   XYZ
    dof rx
    limits (0.0 90.0)
  end
  begin
     id 30
     name rthumb
     direction -0.707107 -6.34881e-011 0.707107   
     length 0.950103   
     axis -90 -45 4.80359e-014   XYZ
    dof rx rz
    limits (-45.0 45.0)
           (-45.0 45.0)
  end
:hierarchy
  begin
    root lhipjoint rhipjoint lowerback
    lhipjoint lfemur
    lfemur ltibia
    ltibia lfoot
    lfoot ltoes
    rhipjoint rfemur
    rfemur rtibia
    rtibia rfoot
    rfoot rtoes
    lowerback upperback
    upperback thorax
    thorax lowerneck lclavicle rclavicle
    lowerneck upperneck
    upperneck head
    lclavicle lhumerus
    lhumerus lradius
    lradius lwrist
    lwrist lhand lthumb
    lhand lfingers
    rclavicle rhumerus
    rhumerus rradius
    rradius rwrist
    rwrist rhand rthumb
    rhand rfingers
  end

#!OML:ASF I:\golf\golf\golf 2\Subject 1\2002-09-07\Subject1.ASF
:FULLY-SPECIFIED
:DEGREES
53
root -7.06812 17.6615 1.97235 -65.063 87.4278 -81.0079
lowerback 1.26477 1.76549 -2.17041
upperback 1.99238 2.38314 4.22231
thorax 1.07333 1.16783 5.57362
lowerneck -13.9005 -2.09386 1.0868
upperneck 42.0011 0.585483 -4.06789
head 17.9858 0.558673 -1.76243
rclavicle 1.03368e-014 2.78299e-014
rhumerus -6.24651 -0.053056 -101.972
rradius 20.8363
rwrist -37.3781
rhand -15.2681 -11.4877
rfingers 7.12502
rthumb 10.9062 -41.1845
lclavicle 1.03368e-014 2.78299e-014
lhumerus -7.89328 -33.7439 108.06
lradius 22.8624
lwrist 37.6124
lhand -7.98496 70.5149
lfingers 7.12502
lthumb -162.077 80.291
rfemur -30.2066 -2.89256 10.1958
rtibia 31.3009
rfoot -10.4938 -7.79261
rtoes -7.33909
lfemur -29.4415 8.23939 -8.84921
ltibia 32.2066
lfoot -13.5444 -2.84877
ltoes -21.986
54
root -7.0695 17.6617 1.97136 -65.63 87.401 -81.5626
lowerback 1.30364 1.7684 -2.13672
upperback 1.98875 2.38742 4.22262
thorax 1.04856 1.1711 5.55315
lowerneck -13.9254 -2.08842 1.1322
upperneck 42.0595 0.584893 -4.06009
head 18.027 0.568928 -1.76864
rclavicle 1.74931e-014 1.35174e-014
rhumerus -6.29056 -0.0909972 -101.915
rradius 20.8531
rwrist -37.4201
rhand -14.9092 -11.4959
rfingers 7.12502
rthumb 11.2523 -41.1741
lclavicle 1.74931e-014 1.35174e-014
lhumerus -7.73413 -32.7265 107.919
lradius 22.5695
lwrist 37.0842
lhand -7.67003 70.4918
lfingers 7.12502
lthumb -161.774 80.3421
rfemur -30.1652 -2.86145 10.2218
rtibia 31.2391
rfoot -10.499 -7.84111
rtoes -7.00558
lfemur -29.4874 8.23814 -8.80575
ltibia 32.2949
lfoot -13.5601 -2.91518
ltoes -21.5725
55
root -7.07093 17.6617 1.97008 -65.5733 87.416 -81.4949
lowerback 1.33971 1.77374 -2.16463
upperback 1.9859 2.39441 4.22303
thorax 1.02353 1.17482 5.56802
lowerneck -13.9846 -2.08489 1.14117
upperneck 42.1527 0.602827 -4.06063
head 18.1 0.580678 -1.76986
rclavicle -2.38542e-014 -2.06736e-014
rhumerus -6.36702 0.201488 -101.9
rradius 20.9715
rwrist -38.2911
rhand -15.247 -11.2952
rfingers 7.12502
rthumb 10.9265 -40.9909
lclavicle -2.38542e-014 -2.06736e-014
lhumerus -7.60786 -31.8943 107.816
lradius 22.4393
lwrist 36.7262
lhand -7.4975 70.6585
lfingers 7.12502
lthumb -161.608 80.191
rfemur -30.13 -2.85529 10.1954
rtibia 31.172
rfoot -10.4557 -7.827
rtoes -6.48909
lfemur -29.5199 8.28148 -8.82853
ltibia 32.369
lfoot -13.5536 -3.02205
ltoes -21.3296
56
root -7.07248 17.6588 1.96867 -66.1074 87.4299 -82.0318
lowerback 1.34433 1.77817 -2.08253
upperback 1.9875 2.39977 4.16483
thorax 1.02744 1.17821 5.45986
lowerneck -14.0123 -2.08206 1.17137
upperneck 42.2 0.587542 -4.02053
head 18.1347 0.586306 -1.76066
rclavicle 1.19271e-015 2.38542e-014
rhumerus -6.45179 0.74859 -102.019
rradius 21.2308
rwrist -39.8639
rhand -16.2359 -10.9816
rfingers 7.12502
rthumb 9.97262 -40.7254
lclavicle 1.19271e-015 2.38542e-014
lhumerus -7.53805 -31.5578 107.708
lradius 22.4436
lwrist 36.7114
lhand -7.31449 70.8102
lfingers 7.12502
lthumb -161.432 80.0561
rfemur -30.1001 -2.89542 10.1878
rtibia 31.0961
rfoot -10.3799 -7.808
rtoes -6.3882
lfemur -29.5754 8.32936 -8.86077
ltibia 32.4272
lfoot -13.5689 -3.05375
ltoes -21.6596
57
root -7.07299 17.6648 1.96578 -67.2318 87.3804 -83.1516
lowerback 1.3475 1.78431 -1.82139
upperback 1.98848 2.40789 4.05201
thorax 1.04036 1.18502 5.19262
lowerneck -13.9883 -2.07762 1.28001
upperneck 42.1918 0.538048 -3.97708
head 18.1193 0.58954 -1.76877
rclavicle -4.37326e-015 1.59028e-015
rhumerus -6.46993 0.871747 -102.198
rradius 21.344
rwrist -40.6193
rhand -16.5658 -10.7739
rfingers 7.12502
rthumb 9.6543 -40.5327
lclavicle -4.37326e-015 1.59028e-015
lhumerus -7.49084 -31.2843 107.496
lradius 22.3515
lwrist 36.2113
lhand -7.2029 71.2346
lfingers 7.12502
lthumb -161.324 79.6419
rfemur -30.0402 -2.93379 10.2592
rtibia 31.0131
rfoot -10.3073 -7.80865
rtoes -6.93379
lfemur -29.6245 8.22977 -8.75969
ltibia 32.4887
lfoot -13.5282 -3.16451
ltoes -20.7165
58
root -7.07307 17.673 1.96159 -67.925 87.3275 -83.8385
lowerback 1.34986 1.78727 -1.63142
upperback 1.99269 2.4123 3.99404
thorax 1.05262 1.18931 5.02389
lowerneck -13.9617 -2.06216 1.33746
upperneck 42.1421 0.518872 -3.94161
head 18.0803 0.59381 -1.76486
rclavicle 1.39149e-014 9.54166e-015
rhumerus -6.37741 0.337614 -102.247
rradius 21.1799
rwrist -39.7976
rhand -15.8447 -10.9416
rfingers 7.12502
rthumb 10.3499 -40.6669
lclavicle 1.39149e-014 9.54166e-015
lhumerus -7.3708 -30.7756 107.332
lradius 22.1363
lwrist 35.6233
lhand -7.09106 71.6206
lfingers 7.12502
lthumb -161.217 79.2663
rfemur -29.9759 -2.96795 10.3246
rtibia 30.9222
rfoot -10.2643 -7.79798
rtoes -7.33242
lfemur -29.6552 8.11854 -8.65732
ltibia 32.5575
lfoot -13.5091 -3.27518
ltoes -19.4777
59
root -7.07412 17.672 1.95783 -68.6799 87.2931 -84.5991
lowerback 1.39587 1.8022 -1.55666
upperback 1.96938 2.43368 4.0005
thorax 1.00336 1.20231 4.98559
lowerneck -13.9231 -2.05991 1.33695
upperneck 42.0791 0.504342 -3.91926
head 18.0311 0.589371 -1.75499
rclavicle -2.14687e-014 -6.04305e-014
rhumerus -6.23034 -0.766997 -102.168
rradius 20.8395
rwrist -37.9997
rhand -14.4359 -11.2898
rfingers 7.12502
rthumb 11.7087 -40.9426
lclavicle -2.14687e-014 -6.04305e-014
lhumerus -7.29629 -30.4999 107.311
lradius 21.9848
lwrist 35.6486
lhand -6.93009 71.5903
lfingers 7.12502
lthumb -161.062 79.3116
rfemur -29.9508 -3.00343 10.3633
rtibia 30.8656
rfoot -10.2713 -7.76733
rtoes -6.77078
lfemur -29.6931 8.11499 -8.62708
ltibia 32.6094
lfoot -13.5715 -3.25147
ltoes -19.7831
60
root -7.0748 17.6721 1.95547 -69.9877 87.2635 -85.9387
lowerback 1.41608 1.81116 -1.49751
upperback 1.93588 2.44704 4.00916
thorax 0.958206 1.21105 4.95925
lowerneck -13.9069 -2.07521 1.35212
upperneck 42.0696 0.475151 -3.91778
head 18.0193 0.580882 -1.76179
rclavicle -4.37326e-015 0
rhumerus -6.17773 -1.32874 -102.126
rradius 20.7015
rwrist -37.2662
rhand -13.6245 -11.418
rfingers 7.12502
rthumb 12.4911 -41.0247
lclavicle -4.37326e-015 0
lhumerus -7.28213 -30.519 107.272
lradius 21.9624
lwrist 35.8714
lhand -6.75338 71.5268
lfingers 7.12502
lthumb -160.892 79.3919
rfemur -29.9981 -3.00523 10.396
rtibia 30.9198
rfoot -10.3233 -7.77302
rtoes -6.14089
lfemur -29.7378 8.07736 -8.5784
ltibia 32.5963
lfoot -13.535 -3.29266
ltoes -19.6848
61
root -7.07565 17.666 1.95485 -70.2994 87.2463 -86.2842
lowerback 1.35869 1.80859 -1.52208
upperback 1.95092 2.44352 4.04139
thorax 1.00393 1.20815 5.00948
lowerneck -13.9722 -2.08658 1.33593
upperneck 42.1195 0.47164 -3.92613
head 18.067 0.576611 -1.76539
rclavicle 2.78299e-015 1.66979e-014
rhumerus -6.17645 -1.16207 -102.09
rradius 20.7879
rwrist -37.5442
rhand -13.6286 -11.5047
rfingers 7.12502
rthumb 12.4872 -41.1116
lclavicle 2.78299e-015 1.66979e-014
lhumerus -7.18443 -30.5139 107.227
lradius 21.9621
lwrist 36.0566
lhand -6.67357 71.6407
lfingers 7.12502
lthumb -160.815 79.2856
rfemur -30.1117 -2.97516 10.4038
rtibia 31.0646
rfoot -10.3584 -7.81878
rtoes -6.75177
lfemur -29.7398 8.12464 -8.58898
ltibia 32.5239
lfoot -13.5347 -3.20174
ltoes -20.4469
62
root -7.07757 17.6513 1.95494 -68.9285 87.2676 -84.8587
lowerback 1.40888 1.80953 -1.74624
upperback 1.98998 2.44506 4.15728
thorax 1.00229 1.20625 5.25741
lowerneck -14.018 -2.08145 1.25898
upperneck 42.1414 0.552405 -4.02725
head 18.0983 0.583465 -1.78501
rclavicle 1.39149e-014 5.56597e-015
rhumerus -6.17001 -1.05537 -101.931
rradius 20.8249
rwrist -37.5977
rhand -13.4987 -11.683
rfingers 7.12502
rthumb 12.6124 -41.2822
lclavicle 1.39149e-014 5.56597e-015
lhumerus -7.04203 -30.3249 107.329
lradius 21.8928
lwrist 36.1309
lhand -6.57348 71.6891
lfingers 7.12502
lthumb -160.719 79.2467
rfemur -30.1641 -2.91831 10.3484
rtibia 31.2196
rfoot -10.3658 -7.88493
rtoes -8.0405
lfemur -29.5976 8.21703 -8.6503
ltibia 32.4359
lfoot -13.5889 -3.03585
ltoes -21.6088
63
root -7.0784 17.6455 1.95469 -67.4328 87.2991 -83.2445
lowerback 1.54676 1.84421 -1.92762
upperback 2.02962 2.49119 4.22014
thorax 0.95116 1.22803 5.42184
lowerneck -14.0469 -2.08321 1.22057
upperneck 42.1708 0.598409 -4.09356
head 18.1271 0.588508 -1.80143
rclavicle -2.38542e-015 -1.59028e-014
rhumerus -6.15739 -1.09812 -101.845
rradius 20.8879
rwrist -38.062
rhand -13.5028 -11.787
rfingers 7.12502
rthumb 12.6085 -41.3865
lclavicle -2.38542e-015 -1.59028e-014
lhumerus -7.04258 -30.5487 107.449
lradius 21.9935
lwrist 36.7869
lhand -6.3517 71.4432
lfingers 7.12502
lthumb -160.506 79.514
rfemur -30.1054 -2.83369 10.2735
rtibia 31.3278
rfoot -10.4217 -7.91377
rtoes -8.05182
lfemur -29.3972 8.27198 -8.69212
ltibia 32.3767
lfoot -13.5879 -3.02964
ltoes -21.6316
64
root -7.07831 17.6457 1.95424 -66.7837 87.2861 -82.5451
lowerback 1.59839 1.88098 -1.93881
upperback 2.05328 2.53996 4.20935
thorax 0.941324 1.2523 5.41475
lowerneck -14.0827 -2.07532 1.20822
upperneck 42.2234 0.595817 -4.02744
head 18.1682 0.596379 -1.76992
rclavicle -5.96354e-015 -3.65764e-014
rhumerus -6.14392 -1.04701 -101.91
rradius 20.9959
rwrist -38.8893
rhand -13.7851 -11.8419
rfingers 7.12502
rthumb 12.3363 -41.4579
lclavicle -5.96354e-015 -3.65764e-014
lhumerus -7.11876 -31.0094 107.467
lradius 22.2453
lwrist 37.7722
lhand -6.28875 71.36
lfingers 7.12502
lthumb -160.445 79.6034
rfemur -30.066 -2.78859 10.2693
rtibia 31.3583
rfoot -10.4783 -7.8663
rtoes -7.14947
lfemur -29.3258 8.32888 -8.69967
ltibia 32.367
lfoot -13.6187 -3.00402
ltoes -21.9029
